<svg xmlns="http://www.w3.org/2000/svg" width="900" height="640" viewBox="0 0 900 640"><rect width="900" height="640" rx="48" fill="#f6faf7"/><rect x="80" y="75" width="740" height="500" rx="44" fill="#fff" stroke="#dfeae4" stroke-width="4"/><rect x="115" y="110" width="150" height="430" rx="30" fill="#163025"/><rect x="145" y="150" width="72" height="22" rx="11" fill="#cfeee0"/><rect x="145" y="215" width="90" height="14" rx="7" fill="#eef8f2" opacity=".8"/><rect x="145" y="255" width="82" height="14" rx="7" fill="#eef8f2" opacity=".8"/><rect x="145" y="295" width="98" height="14" rx="7" fill="#eef8f2" opacity=".8"/><rect x="310" y="125" width="125" height="85" rx="24" fill="#eef8f2"/><rect x="455" y="125" width="125" height="85" rx="24" fill="#eef8f2"/><rect x="600" y="125" width="155" height="85" rx="24" fill="#eef8f2"/><rect x="310" y="250" width="445" height="155" rx="30" fill="#fff" stroke="#dfeae4" stroke-width="3"/><polyline points="340,360 405,315 470,340 540,290 610,315 720,270" fill="none" stroke="#0f3d2e" stroke-width="8" stroke-linecap="round" stroke-linejoin="round"/><rect x="310" y="435" width="445" height="78" rx="26" fill="#eef8f2"/><circle cx="350" cy="474" r="18" fill="#0f3d2e"/><rect x="382" y="462" width="220" height="14" rx="7" fill="#dfeae4"/><rect x="382" y="486" width="145" height="14" rx="7" fill="#dfeae4"/></svg>
